<?xml version="1.0" encoding="utf-8"?>
<!-- Generator: Adobe Illustrator 25.4.1, SVG Export Plug-In . SVG Version: 6.00 Build 0)  -->
<svg version="1.1" id="Layer_2" xmlns="http://www.w3.org/2000/svg" xmlns:xlink="http://www.w3.org/1999/xlink" x="0px" y="0px"
	 viewBox="0 0 500.38 500.38" style="enable-background:new 0 0 500.38 500.38;" xml:space="preserve">
<style type="text/css">
	.st0{fill:#FBF7C4;}
	.st1{fill:none;stroke:#000000;stroke-miterlimit:10;}
	.st2{fill:none;stroke:#000000;stroke-width:0.25;stroke-miterlimit:10;}
	.st3{fill:#2D2C41;}
	.st4{fill:none;stroke:#000000;stroke-width:0.5;stroke-miterlimit:10;}
	.st5{fill:#535F73;}
	.st6{fill:#4B658D;}
	.st7{fill:#494D96;}
	.st8{fill:none;stroke:#000000;stroke-width:0.6005;stroke-miterlimit:10;}
	.st9{fill:#917D80;}
	.st10{fill:#CB9C94;}
	.st11{fill:#FAC6C6;}
	.st12{fill:#FFFFFF;}
	.st13{fill:#F2DDD8;}
	.st14{fill:none;stroke:#000000;stroke-width:0.1434;stroke-miterlimit:10;}
	.st15{fill:none;stroke:#000000;stroke-width:0.0868;stroke-miterlimit:10;}
	.st16{fill:#4A4972;}
	.st17{fill:none;stroke:#000000;stroke-width:0.4585;stroke-miterlimit:10;}
	.st18{fill:#5F70B5;}
	.st19{fill:#A5A5D3;}
	.st20{fill:#525EAA;}
	.st21{fill:#A2ACD7;}
	.st22{fill:#C8C1E0;}
	.st23{fill:#FDFEFF;}
	.st24{fill:#EFB0C4;}
	.st25{fill:none;stroke:#000000;stroke-width:0.4493;stroke-miterlimit:10;}
	.st26{fill:#F7DFD7;}
	.st27{fill:none;stroke:#000000;stroke-width:0.1937;stroke-miterlimit:10;}
	.st28{fill:#010101;}
</style>
<g>
	
		<image style="overflow:visible;" width="2313" height="2172" xlink:href="92666F3422B0BB06.png"  transform="matrix(0.24 0 0 0.24 -21.6521 -5.3734)">
	</image>
	<g>
		
			<rect x="91.14" y="111.25" transform="matrix(0.9855 -0.1697 0.1697 0.9855 -39.6097 47.1249)" class="st0" width="329.56" height="288.13"/>
		
			<rect x="91.14" y="111.25" transform="matrix(0.9855 -0.1697 0.1697 0.9855 -39.6097 47.1249)" class="st1" width="329.56" height="288.13"/>
	</g>
</g>
<g>
	
		<image style="overflow:visible;" width="456" height="499" xlink:href="92666F3422B0BB0A.png"  transform="matrix(0.24 0 0 0.24 54.5102 115.1889)">
	</image>
	<g>
		<rect x="75.38" y="134.98" transform="matrix(0.9855 -0.1697 0.1697 0.9855 -28.104 21.0637)" width="67.62" height="79.97"/>
		
			<rect x="75.38" y="134.98" transform="matrix(0.9855 -0.1697 0.1697 0.9855 -28.104 21.0637)" class="st2" width="67.62" height="79.97"/>
	</g>
</g>
<g>
	
		<image style="overflow:visible;" width="458" height="499" xlink:href="92666F3422B0BB0D.png"  transform="matrix(0.24 0 0 0.24 119.5502 103.9089)">
	</image>
	<g>
		
			<rect x="140.56" y="123.76" transform="matrix(0.9855 -0.1697 0.1697 0.9855 -25.2552 31.959)" class="st3" width="67.62" height="79.97"/>
		
			<rect x="140.56" y="123.76" transform="matrix(0.9855 -0.1697 0.1697 0.9855 -25.2552 31.959)" class="st4" width="67.62" height="79.97"/>
	</g>
</g>
<g>
	
		<image style="overflow:visible;" width="398" height="398" xlink:href="92666F3422B0BB0E.png"  transform="matrix(0.24 0 0 0.24 79.0061 180.9648)">
	</image>
	<g>
		
			<rect x="96.04" y="198.11" transform="matrix(0.9855 -0.1697 0.1697 0.9855 -36.9644 24.7959)" class="st5" width="61.13" height="61.13"/>
		
			<rect x="96.04" y="198.11" transform="matrix(0.9855 -0.1697 0.1697 0.9855 -36.9644 24.7959)" class="st4" width="61.13" height="61.13"/>
	</g>
</g>
<g>
	
		<image style="overflow:visible;" width="372" height="372" xlink:href="92666F3422B0BB0C.png"  transform="matrix(0.24 0 0 0.24 77.3781 235.7368)">
	</image>
	<g>
		
			<rect x="93.45" y="251.8" transform="matrix(0.9855 -0.1697 0.1697 0.9855 -45.8035 24.7713)" class="st6" width="57.16" height="57.16"/>
		
			<rect x="93.45" y="251.8" transform="matrix(0.9855 -0.1697 0.1697 0.9855 -45.8035 24.7713)" class="st4" width="57.16" height="57.16"/>
	</g>
</g>
<g>
	
		<image style="overflow:visible;" width="346" height="448" xlink:href="92666F3422B0BB0B.png"  transform="matrix(0.24 0 0 0.24 83.611 276.2897)">
	</image>
	<g>
		
			<rect x="101.92" y="291.71" transform="matrix(0.9855 -0.1697 0.1697 0.9855 -54.1752 26.0213)" class="st7" width="46.49" height="76.56"/>
		
			<rect x="101.92" y="291.71" transform="matrix(0.9855 -0.1697 0.1697 0.9855 -54.1752 26.0213)" class="st8" width="46.49" height="76.56"/>
	</g>
</g>
<g>
	
		<image style="overflow:visible;" width="357" height="368" xlink:href="92666F3422B0BB05.png"  transform="matrix(0.24 0 0 0.24 190.2417 98.0404)">
	</image>
	<g>
		
			<rect x="205.94" y="113.51" transform="matrix(0.9855 -0.1697 0.1697 0.9855 -20.7367 41.5858)" class="st9" width="54.02" height="57.22"/>
		
			<rect x="205.94" y="113.51" transform="matrix(0.9855 -0.1697 0.1697 0.9855 -20.7367 41.5858)" class="st4" width="54.02" height="57.22"/>
	</g>
</g>
<g>
	
		<image style="overflow:visible;" width="340" height="308" xlink:href="92666F3422B0BB07.png"  transform="matrix(0.24 0 0 0.24 238.6904 92.0091)">
	</image>
	<g>
		
			<rect x="252.13" y="106.43" transform="matrix(0.9855 -0.1697 0.1697 0.9855 -17.8341 49.2754)" class="st10" width="54.52" height="45.12"/>
		
			<rect x="252.13" y="106.43" transform="matrix(0.9855 -0.1697 0.1697 0.9855 -17.8341 49.2754)" class="st4" width="54.52" height="45.12"/>
	</g>
</g>
<g>
	
		<image style="overflow:visible;" width="545" height="315" xlink:href="92666F3422B0BB04.png"  transform="matrix(0.24 0 0 0.24 280.2072 75.2059)">
	</image>
	<g>
		
			<rect x="294.36" y="95.65" transform="matrix(0.9855 -0.1697 0.1697 0.9855 -14.1507 60.2656)" class="st11" width="102.35" height="34.56"/>
		
			<rect x="294.36" y="95.65" transform="matrix(0.9855 -0.1697 0.1697 0.9855 -14.1507 60.2656)" class="st4" width="102.35" height="34.56"/>
	</g>
</g>
<g>
	
		<image style="overflow:visible;" width="282" height="282" xlink:href="28CE1289038B0839.png"  transform="matrix(0.24 0 0 0.24 344.0527 95.8514)">
	</image>
	<g>
		
			<rect x="356.07" y="107.86" transform="matrix(0.9855 -0.1697 0.1697 0.9855 -16.5072 65.9785)" class="st11" width="43.42" height="43.42"/>
		
			<rect x="356.07" y="107.86" transform="matrix(0.9855 -0.1697 0.1697 0.9855 -16.5072 65.9785)" class="st2" width="43.42" height="43.42"/>
	</g>
</g>
<g>
	
		<image style="overflow:visible;" width="220" height="219" xlink:href="28CE1289038B083F.png"  transform="matrix(0.24 0 0 0.24 338.9781 127.0168)">
	</image>
	<g>
		
			<rect x="348.46" y="136.4" transform="matrix(0.9855 -0.1697 0.1697 0.9855 -20.7088 64.2086)" class="st12" width="33.74" height="33.74"/>
		
			<rect x="348.46" y="136.4" transform="matrix(0.9855 -0.1697 0.1697 0.9855 -20.7088 64.2086)" class="st2" width="33.74" height="33.74"/>
	</g>
</g>
<g>
	
		<image style="overflow:visible;" width="281" height="282" xlink:href="28CE1289038B0838.png"  transform="matrix(0.24 0 0 0.24 271.5963 119.395)">
	</image>
	<g>
		
			<rect x="283.59" y="131.52" transform="matrix(0.9855 -0.1697 0.1697 0.9855 -21.5631 54.0117)" class="st13" width="43.3" height="43.3"/>
		
			<rect x="283.59" y="131.52" transform="matrix(0.9855 -0.1697 0.1697 0.9855 -21.5631 54.0117)" class="st2" width="43.3" height="43.3"/>
	</g>
</g>
<g>
	
		<image style="overflow:visible;" width="136" height="136" xlink:href="28CE1289038B083B.png"  transform="matrix(0.24 0 0 0.24 380.6499 162.6886)">
	</image>
	<g>
		
			<rect x="386.57" y="168.65" transform="matrix(0.9855 -0.1697 0.1697 0.9855 -24.6113 69.9356)" class="st12" width="20.64" height="20.64"/>
		
			<rect x="386.57" y="168.65" transform="matrix(0.9855 -0.1697 0.1697 0.9855 -24.6113 69.9356)" class="st2" width="20.64" height="20.64"/>
	</g>
</g>
<g>
	
		<image style="overflow:visible;" width="219" height="219" xlink:href="28CE1289038B0827.png"  transform="matrix(0.24 0 0 0.24 295.2981 152.6968)">
	</image>
	<g>
		
			<rect x="304.71" y="162.1" transform="matrix(0.9855 -0.1697 0.1697 0.9855 -25.7032 57.158)" class="st12" width="33.74" height="33.74"/>
		
			<rect x="304.71" y="162.1" transform="matrix(0.9855 -0.1697 0.1697 0.9855 -25.7032 57.158)" class="st2" width="33.74" height="33.74"/>
	</g>
</g>
<g>
	
		<image style="overflow:visible;" width="127" height="127" xlink:href="28CE1289038B0837.png"  transform="matrix(0.24 0 0 0.24 343.4584 173.4971)">
	</image>
	<g>
		
			<rect x="348.96" y="179.05" transform="matrix(0.9855 -0.1697 0.1697 0.9855 -26.8214 63.5879)" class="st12" width="19.36" height="19.36"/>
		
			<rect x="348.96" y="179.05" transform="matrix(0.9855 -0.1697 0.1697 0.9855 -26.8214 63.5879)" class="st14" width="19.36" height="19.36"/>
	</g>
</g>
<g>
	
		<image style="overflow:visible;" width="77" height="76" xlink:href="28CE1289038B0829.png"  transform="matrix(0.24 0 0 0.24 368.2258 205.7045)">
	</image>
	<g>
		
			<rect x="371.62" y="208.97" transform="matrix(0.9855 -0.1697 0.1697 0.9855 -30.9776 67.1637)" class="st12" width="11.72" height="11.72"/>
		
			<rect x="371.62" y="208.97" transform="matrix(0.9855 -0.1697 0.1697 0.9855 -30.9776 67.1637)" class="st15" width="11.72" height="11.72"/>
	</g>
</g>
<g>
	
		<image style="overflow:visible;" width="364" height="364" xlink:href="28CE1289038B082B.png"  transform="matrix(0.24 0 0 0.24 150.5543 153.873)">
	</image>
	<g>
		
			<rect x="166.22" y="169.45" transform="matrix(0.9855 -0.1697 0.1697 0.9855 -30.6893 35.821)" class="st16" width="56.05" height="56.05"/>
		
			<rect x="166.22" y="169.45" transform="matrix(0.9855 -0.1697 0.1697 0.9855 -30.6893 35.821)" class="st17" width="56.05" height="56.05"/>
	</g>
</g>
<g>
	
		<image style="overflow:visible;" width="277" height="277" xlink:href="28CE1289038B0828.png"  transform="matrix(0.24 0 0 0.24 144.3089 209.0677)">
	</image>
	<g>
		
			<rect x="156.38" y="221.11" transform="matrix(0.9855 -0.1697 0.1697 0.9855 -38.5483 33.6552)" class="st18" width="42.52" height="42.52"/>
		
			<rect x="156.38" y="221.11" transform="matrix(0.9855 -0.1697 0.1697 0.9855 -38.5483 33.6552)" class="st4" width="42.52" height="42.52"/>
	</g>
</g>
<g>
	
		<image style="overflow:visible;" width="277" height="277" xlink:href="28CE1289038B082F.png"  transform="matrix(0.24 0 0 0.24 141.1889 268.1077)">
	</image>
	<g>
		
			<rect x="153.1" y="280.14" transform="matrix(0.9855 -0.1697 0.1697 0.9855 -48.6115 33.9549)" class="st19" width="42.52" height="42.52"/>
		
			<rect x="153.1" y="280.14" transform="matrix(0.9855 -0.1697 0.1697 0.9855 -48.6115 33.9549)" class="st4" width="42.52" height="42.52"/>
	</g>
</g>
<g>
	
		<image style="overflow:visible;" width="233" height="233" xlink:href="28CE1289038B084C.png"  transform="matrix(0.24 0 0 0.24 146.3702 304.9689)">
	</image>
	<g>
		
			<rect x="156.55" y="315.04" transform="matrix(0.9855 -0.1697 0.1697 0.9855 -53.9476 34.4109)" class="st20" width="35.63" height="35.63"/>
		
			<rect x="156.55" y="315.04" transform="matrix(0.9855 -0.1697 0.1697 0.9855 -53.9476 34.4109)" class="st4" width="35.63" height="35.63"/>
	</g>
</g>
<g>
	
		<image style="overflow:visible;" width="295" height="312" xlink:href="28CE1289038B084F.png"  transform="matrix(0.24 0 0 0.24 108.4937 344.6124)">
	</image>
	<g>
		
			<rect x="121.77" y="357.42" transform="matrix(0.9855 -0.1697 0.1697 0.9855 -62.721 29.9384)" class="st21" width="44.08" height="49.05"/>
		
			<rect x="121.77" y="357.42" transform="matrix(0.9855 -0.1697 0.1697 0.9855 -62.721 29.9384)" class="st4" width="44.08" height="49.05"/>
	</g>
</g>
<g>
	
		<image style="overflow:visible;" width="200" height="200" xlink:href="28CE1289038B084D.png"  transform="matrix(0.24 0 0 0.24 137.5455 333.5842)">
	</image>
	<g>
		
			<rect x="146.17" y="342.38" transform="matrix(0.9855 -0.1697 0.1697 0.9855 -58.3324 32.5659)" class="st12" width="30.42" height="30.42"/>
		
			<rect x="146.17" y="342.38" transform="matrix(0.9855 -0.1697 0.1697 0.9855 -58.3324 32.5659)" class="st4" width="30.42" height="30.42"/>
	</g>
</g>
<g>
	
		<image style="overflow:visible;" width="231" height="231" xlink:href="28CE1289038B0843.png"  transform="matrix(0.24 0 0 0.24 187.4461 222.2048)">
	</image>
	<g>
		
			<rect x="197.3" y="232.19" transform="matrix(0.9855 -0.1697 0.1697 0.9855 -39.2862 40.1066)" class="st22" width="35.45" height="35.45"/>
		
			<rect x="197.3" y="232.19" transform="matrix(0.9855 -0.1697 0.1697 0.9855 -39.2862 40.1066)" class="st2" width="35.45" height="35.45"/>
	</g>
</g>
<g>
	
		<image style="overflow:visible;" width="141" height="141" xlink:href="28CE1289038B0844.png"  transform="matrix(0.24 0 0 0.24 218.9757 238.3744)">
	</image>
	<g>
		
			<rect x="225.13" y="244.59" transform="matrix(0.9855 -0.1697 0.1697 0.9855 -39.8986 43.7178)" class="st23" width="21.43" height="21.43"/>
		
			<rect x="225.13" y="244.59" transform="matrix(0.9855 -0.1697 0.1697 0.9855 -39.8986 43.7178)" class="st2" width="21.43" height="21.43"/>
	</g>
</g>
<g>
	
		<image style="overflow:visible;" width="105" height="105" xlink:href="28CE1289038B0847.png"  transform="matrix(0.24 0 0 0.24 251.465 235.1037)">
	</image>
	<g>
		
			<rect x="256.01" y="239.7" transform="matrix(0.9855 -0.1697 0.1697 0.9855 -38.2026 48.3902)" class="st23" width="16.04" height="16.04"/>
		
			<rect x="256.01" y="239.7" transform="matrix(0.9855 -0.1697 0.1697 0.9855 -38.2026 48.3902)" class="st2" width="16.04" height="16.04"/>
	</g>
</g>
<g>
	
		<image style="overflow:visible;" width="279" height="279" xlink:href="28CE1289038B0845.png"  transform="matrix(0.24 0 0 0.24 211.7104 166.0691)">
	</image>
	<g>
		
			<rect x="223.83" y="178.03" transform="matrix(0.9855 -0.1697 0.1697 0.9855 -30.2752 44.4924)" class="st24" width="42.72" height="42.72"/>
		
			<rect x="223.83" y="178.03" transform="matrix(0.9855 -0.1697 0.1697 0.9855 -30.2752 44.4924)" class="st25" width="42.72" height="42.72"/>
	</g>
</g>
<g>
	
		<image style="overflow:visible;" width="231" height="242" xlink:href="28CE1289038B0842.png"  transform="matrix(0.24 0 0 0.24 235.0265 176.1852)">
	</image>
	<g>
		
			<rect x="245.36" y="186.22" transform="matrix(0.9855 -0.1697 0.1697 0.9855 -31.0128 47.5578)" class="st26" width="34.78" height="38.03"/>
		
			<rect x="245.36" y="186.22" transform="matrix(0.9855 -0.1697 0.1697 0.9855 -31.0128 47.5578)" class="st2" width="34.78" height="38.03"/>
	</g>
</g>
<g>
	
		<image style="overflow:visible;" width="127" height="127" xlink:href="28CE1289038B087C.png"  transform="matrix(0.24 0 0 0.24 274.3398 199.4185)">
	</image>
	<g>
		
			<rect x="279.8" y="204.88" transform="matrix(0.9855 -0.1697 0.1697 0.9855 -32.2078 52.2276)" class="st12" width="19.35" height="19.35"/>
		
			<rect x="279.8" y="204.88" transform="matrix(0.9855 -0.1697 0.1697 0.9855 -32.2078 52.2276)" class="st2" width="19.35" height="19.35"/>
	</g>
</g>
<g>
	
		<image style="overflow:visible;" width="99" height="99" xlink:href="28CE1289038B087F.png"  transform="matrix(0.24 0 0 0.24 312.6277 199.7865)">
	</image>
	<g>
		
			<rect x="316.9" y="204" transform="matrix(0.9855 -0.1697 0.1697 0.9855 -31.1812 58.1085)" class="st12" width="15" height="15"/>
		
			<rect x="316.9" y="204" transform="matrix(0.9855 -0.1697 0.1697 0.9855 -31.1812 58.1085)" class="st27" width="15" height="15"/>
	</g>
</g>
<g>
	
		<image style="overflow:visible;opacity:0.75;" width="972" height="588" xlink:href="28CE1289038B0863.png"  transform="matrix(0.24 0 0 0.24 194.5879 243.2666)">
	</image>
	<g>
		<g>
			<path id="path918_00000077314928436703536420000012045616018300629645_" class="st28" d="M360.1,342.39
				c-0.2-0.11-0.33-0.25-0.29-0.31c0.13-0.18-0.36-3.01-0.65-3.75c-0.14-0.37-0.32-1.82-0.4-3.34c-0.08-1.48-0.24-3.76-0.37-5.08
				c-0.32-3.44-0.36-4.79-0.18-5.95c0.14-0.94,0.12-1.11-0.33-2.11c-0.61-1.36-0.73-2.02-0.68-3.94c0.02-0.84-0.06-2.61-0.18-3.93
				c-0.45-4.79-0.51-6.07-0.33-7.25c0.14-0.92,0.1-1.52-0.16-2.6c-0.18-0.77-0.33-1.91-0.32-2.52c0.01-0.86-0.06-1.24-0.32-1.65
				c-0.35-0.56-0.41-1.4-0.36-5.33c0.01-0.88-0.05-1.96-0.12-2.41c-0.18-1.02-0.21-5.37-0.04-6.58c0.15-1.09,0.05-1.77-0.36-2.37
				c-0.38-0.56-0.92-5.95-0.75-7.53c0.08-0.74,0.02-1.34-0.2-2.01c-0.4-1.22-0.43-1.6-0.55-5.55c-0.1-3.37-0.02-3.82,0.86-4.89
				c0.22-0.27,0.51-0.77,0.64-1.11c0.14-0.38,0.59-0.87,1.13-1.24c0.49-0.33,1.32-1.17,1.84-1.86c0.71-0.93,1.3-1.45,2.28-2.03
				c0.73-0.43,1.5-0.98,1.72-1.21c0.92-1,1.99-0.54,3.03,1.26c0.52,0.9,1.9,7.25,2.61,11.96c0.39,2.59,0.77,3.99,1.79,6.56
				c0.26,0.65,0.63,1.77,0.82,2.49c0.89,3.27,4.96,11.39,6.96,13.89c1.19,1.48,2.44,2.47,4,3.13c0.91,0.39,1.34,0.45,2.54,0.35
				c1.42-0.12,1.45-0.13,2.59-1.11c0.64-0.54,1.36-1.08,1.6-1.21c0.24-0.12,1.5-1.71,2.78-3.52s2.41-3.31,2.49-3.32
				c0.09-0.01,0.51-0.72,0.94-1.57c0.43-0.85,1.23-2.2,1.78-2.99c1.16-1.68,2-3.1,2.7-4.57c0.28-0.58,1.3-2.66,2.27-4.64
				c0.97-1.98,1.8-3.76,1.83-3.96c0.04-0.2,0.17-0.55,0.3-0.77c0.33-0.56,0.89-2.08,1.4-3.81c0.6-2.04,1.87-3.63,4.25-5.33
				c3.13-2.23,3.54-2.51,3.75-2.54c0.38-0.07,1.39,0.82,1.84,1.63c0.53,0.95,1.23,4.6,1.09,5.65c-0.05,0.38,0.03,1.42,0.18,2.31
				c0.16,0.94,0.23,2.31,0.17,3.28c-0.06,0.92-0.03,2.54,0.05,3.6c0.11,1.35,0.06,2.47-0.16,3.73c-0.19,1.07-0.27,2.43-0.2,3.34
				c0.16,2.14,0.07,3.43-0.37,5.31c-0.23,0.97-0.32,1.94-0.24,2.41c0.08,0.44,0,1.5-0.17,2.37c-0.17,0.87-0.33,2.2-0.36,2.95
				c-0.03,0.75-0.14,1.74-0.24,2.18c-0.11,0.45-0.19,1.25-0.18,1.78c0.06,4.15-0.05,5.83-0.44,6.58c-0.15,0.28-0.23,0.74-0.18,1.03
				s0.02,0.91-0.07,1.4s-0.15,1.38-0.15,2c0,0.62-0.11,1.43-0.26,1.8c-0.21,0.53-0.21,1.02,0.01,2.28c0.27,1.61,0.1,5.36-0.31,6.66
				c-0.09,0.29-0.15,1.23-0.13,2.08c0.04,1.75-0.13,5.21-0.3,6.02c-0.07,0.36-0.33,0.65-0.79,0.89c-0.71,0.37-2.23,2.26-2.93,3.66
				c-0.58,1.14-1.7,2.39-2.22,2.48c-0.27,0.05-0.61-0.09-0.83-0.33c-0.36-0.38-0.38-0.61-0.37-3.29c0.01-1.59,0.07-3.55,0.14-4.37
				c0.07-0.82,0.06-2.39-0.03-3.5c-0.09-1.11-0.15-3.16-0.13-4.55s-0.02-3.21-0.09-4.02c-0.07-0.82-0.06-1.86,0.01-2.32
				c0.08-0.46,0.07-1.75-0.02-2.87c-0.19-2.34-0.2-4.97-0.02-6.37c0.07-0.53,0.05-1.41-0.04-1.94c-0.09-0.54-0.09-1.98,0.01-3.22
				c0.1-1.23,0.11-2.89,0.04-3.68c-0.08-0.79-0.08-1.93-0.01-2.53c0.07-0.6,0.06-1.87-0.02-2.82c-0.08-0.95-0.1-2.26-0.05-2.91
				c0.05-0.65,0.07-1.67,0.03-2.27c-0.08-1.29-0.38-1.58-1.27-1.21c-0.45,0.18-0.84,0.73-1.84,2.62c-0.7,1.31-1.67,2.94-2.15,3.61
				s-1.04,1.64-1.23,2.16c-0.41,1.1-6.05,9.25-7.14,10.33c-0.41,0.41-1.01,0.84-1.32,0.96c-0.41,0.16-0.7,0.5-1.03,1.22
				c-0.59,1.29-2.4,2.8-4.87,4.08c-2.03,1.05-1.57,0.98-5.18,0.75c-0.53-0.03-0.99-0.21-1.23-0.46c-0.21-0.22-0.72-0.51-1.15-0.64
				c-0.43-0.13-1.17-0.58-1.65-0.99c-0.48-0.41-1.38-1.14-2-1.61c-0.79-0.6-1.76-1.72-3.28-3.75c-1.91-2.55-2.21-2.88-2.67-2.86
				c-0.66,0.04-0.63-0.38-0.48,5.5c0.03,1.01,0.07,2.76,0.09,3.88s0.09,2.6,0.15,3.29c0.06,0.69,0.03,1.6-0.05,2.02
				c-0.08,0.43-0.07,0.92,0.02,1.11c0.09,0.18,0.14,0.69,0.1,1.14s-0.03,1.56,0.02,2.49c0.05,0.92,0.01,2.35-0.11,3.18
				c-0.16,1.14-0.13,2.07,0.12,3.93c0.24,1.76,0.27,2.57,0.11,2.93c-0.16,0.36-0.14,0.75,0.05,1.41c0.2,0.68,0.21,0.97,0.02,1.19
				c-0.17,0.2-0.18,0.48-0.05,0.88c0.13,0.37,0.11,0.95-0.03,1.56c-0.17,0.72-0.17,1.18,0.02,1.78c0.14,0.45,0.32,1.56,0.4,2.48
				c0.14,1.58,0.12,1.72-0.43,2.57c-0.32,0.5-0.67,1.2-0.79,1.57c-0.26,0.84-0.98,1.39-2.05,1.57c-0.46,0.08-1.3,0.4-1.87,0.71
				C360.71,342.62,360.59,342.65,360.1,342.39L360.1,342.39z"/>
			<path id="path914_00000129182247034465310340000013628036280486775188_" class="st28" d="M220.35,372.15
				c-2.39-0.23-5.15-1.12-6.36-2.05c-0.78-0.59-1.17-2.18-0.84-3.35c0.4-1.38,3.87-4.85,6.76-6.76c0.58-0.38,1.72-1.23,2.54-1.88
				c0.82-0.65,2.22-1.67,3.11-2.25c0.89-0.58,2.09-1.43,2.66-1.89c1.51-1.21,2.23-1.54,3.06-1.42c0.46,0.07,0.79,0.28,1.02,0.64
				c0.48,0.76,0.11,1.83-0.85,2.45c-0.39,0.25-0.84,0.67-1,0.92s-0.4,0.48-0.54,0.51c-0.4,0.07-1.14,1.08-0.95,1.3
				c0.27,0.31,1.33,0.04,1.95-0.5c0.31-0.27,1.31-1.53,2.23-2.79l1.66-2.3l-0.25-0.73c-0.4-1.16-0.17-1.87,0.87-2.73
				c0.5-0.41,1.04-1.07,1.2-1.46c0.25-0.61,0.24-0.88-0.08-2.07c-0.35-1.31-0.46-1.49-2.53-3.89c-1.92-2.23-2.43-2.7-4.42-4.03
				c-1.24-0.83-3.27-2.32-4.51-3.3c-1.24-0.98-3.21-2.37-4.38-3.08c-1.17-0.71-2.76-1.88-3.53-2.6s-1.6-1.38-1.83-1.47
				c-0.23-0.09-0.7-0.53-1.03-0.98s-1.05-1.1-1.58-1.44c-1.9-1.23-3.94-4.25-5.14-7.59c-1.03-2.9-1.1-7.56-0.14-9.68
				c0.27-0.6,0.64-1.59,0.82-2.21c0.54-1.87,1.5-4.04,2.76-6.29c0.9-1.6,3.41-4.64,4.04-4.9c0.32-0.13,0.61-0.44,0.72-0.75
				c0.1-0.29,0.7-1.04,1.35-1.66c0.64-0.62,1.41-1.49,1.71-1.92s0.69-0.82,0.87-0.85c0.18-0.03,0.4-0.24,0.47-0.46
				c0.07-0.22,0.41-0.51,0.76-0.63c0.34-0.13,0.82-0.52,1.05-0.87c0.24-0.35,0.53-0.66,0.65-0.68c0.12-0.02,0.42-0.34,0.67-0.72
				c0.58-0.86,1.53-1.58,4.07-3.03c1.11-0.64,2.62-1.6,3.36-2.15c0.79-0.58,1.61-1.03,2-1.1c0.67-0.12,1.38-0.51,2.76-1.55
				c1.01-0.76,1.32-0.85,2.46-0.73c0.72,0.08,1.22,0.31,2.07,0.97l1.12,0.87l0.39,2.26c0.33,1.92,0.36,2.54,0.17,4.07
				c-0.21,1.77-0.24,1.83-1.09,2.61c-0.48,0.44-1.06,1.13-1.3,1.54c-0.24,0.41-1.17,1.51-2.08,2.44c-0.91,0.93-2.02,2.12-2.47,2.65
				c-0.96,1.13-1.56,1.66-3.3,2.92c-0.71,0.51-2.01,1.61-2.89,2.44c-1.52,1.43-1.64,1.5-2.51,1.56c-1.65,0.1-2.52-1.12-2-2.78
				c0.24-0.77,1.36-2.24,2.39-3.14c0.92-0.8,1.53-3.03,0.79-2.9c-0.42,0.07-1.5,1.02-2.21,1.94c-0.35,0.45-1.17,1.37-1.82,2.04
				c-1.15,1.18-2.26,2.83-2.78,4.11c-0.14,0.35-0.4,0.87-0.59,1.17c-0.9,1.45-1.71,5.31-1.44,6.84c0.19,1.08,1.45,3.89,1.92,4.29
				c0.14,0.12,0.48,0.78,0.75,1.45c0.44,1.11,0.61,1.32,1.8,2.17c0.72,0.52,2.01,1.7,2.86,2.62c0.85,0.92,1.95,1.96,2.44,2.31
				c0.49,0.34,1.08,0.86,1.33,1.13c0.7,0.8,3.53,3.17,4.07,3.4c0.27,0.12,1.4,1.01,2.51,2s2.17,1.8,2.35,1.83
				c0.18,0.02,0.51,0.3,0.73,0.62c0.59,0.83,2.1,2.29,3.02,2.92c1.17,0.8,2.48,3.37,3.24,6.36c0.31,1.23,0.6,2.31,0.65,2.41
				c0.05,0.09,0.53,0.23,1.07,0.3l0.99,0.13l0.4,1.33c0.61,2.02,0.58,2.08-1.5,3.85c-1.67,1.42-2.09,1.93-4.87,5.95
				c-1.67,2.42-3.5,4.83-4.05,5.36c-0.55,0.53-1.45,1.45-1.99,2.04c-2.08,2.27-3.88,3.85-7.62,6.67c-1.04,0.79-2.09,1.63-2.32,1.86
				c-0.37,0.37-4.52,2.36-4.97,2.38C221.11,372.21,220.73,372.19,220.35,372.15L220.35,372.15z"/>
			<path id="path906_00000148631100937632614100000010510588031414819241_" class="st28" d="M319.37,316.29
				c0.89-0.06,1.55-0.25,2.89-0.85c0.95-0.43,2-0.78,2.33-0.79c0.33-0.01,1.44-0.31,2.47-0.67c1.1-0.39,2.21-0.66,2.7-0.67
				c0.59-0.01,1.37-0.25,2.62-0.8c0.98-0.43,2.2-0.91,2.71-1.07c0.51-0.15,1.22-0.38,1.58-0.5l0.65-0.22l-0.99-5.42
				c-0.99-5.43-1.8-8.89-2.39-10.24c-0.18-0.4-0.35-1.2-0.39-1.79c-0.07-1.01-0.15-1.17-1.47-2.96c-1.29-1.75-1.56-2-3.37-3.14
				c-1.42-0.9-2.25-1.28-2.99-1.4c-0.99-0.15-1.03-0.14-1.6,0.36c-0.32,0.28-0.61,0.7-0.64,0.93c-0.03,0.23-0.32,0.83-0.65,1.33
				c-0.39,0.6-0.61,1.24-0.66,1.89c-0.1,1.41-2.03,8.02-2.57,8.82c-0.33,0.48-0.46,0.98-0.46,1.73c0,1.33-0.33,3.4-0.89,5.48
				c-0.24,0.89-0.48,2.16-0.53,2.81s-0.3,1.74-0.56,2.41s-0.45,1.27-0.43,1.35c0.01,0.07-0.21,0.75-0.49,1.49
				c-0.52,1.4-0.53,1.33,0.13,2.63c0.08,0.16,0.33,0.1,0.97-0.22C317.93,316.51,318.59,316.34,319.37,316.29L319.37,316.29z
				 M301.15,346.53c-0.41,0.47-1.21,1.47-1.78,2.22c-1.39,1.86-3.08,3.41-5.94,5.47c-2.86,2.06-5.85,3.78-7.74,4.46
				c-1.49,0.53-5.8,1.59-5.98,1.46l0,0c-0.06-0.04-0.94-0.03-1.94,0.02c-1.36,0.07-2.15,0-3.05-0.27c-0.67-0.21-1.5-0.32-1.85-0.26
				c-0.35,0.06-0.99-0.04-1.42-0.22c-0.43-0.18-1.13-0.33-1.56-0.33c-0.43,0-1.67-0.28-2.77-0.62c-3.31-1.04-6.25-3.1-9.1-6.4
				c-1.17-1.36-2.97-4.26-3.42-5.53c-0.21-0.61-0.77-1.79-1.23-2.63c-0.81-1.47-1.11-2.4-1.34-4.23c-0.22-1.72-0.99-4.65-1.38-5.25
				c-0.27-0.42-0.87-9.7-0.77-11.87c0.07-1.41,0.19-2,0.55-2.58c0.44-0.71,0.44-0.81,0.15-1.83c-0.29-0.99-0.28-1.24,0.19-3.19
				c0.28-1.16,0.56-2.65,0.63-3.31c0.22-2.01,2.09-7.8,3.62-11.24c1.44-3.23,3.38-6.64,4.5-7.91c0.72-0.82,1.09-1.41,1.1-1.77
				c0.02-0.6,1.67-2.78,2.8-3.72c0.38-0.31,0.93-1.01,1.22-1.56c0.74-1.38,3.84-4.62,4.75-4.95c0.42-0.16,1.14-0.72,1.77-1.41
				c1.4-1.51,4.74-3.47,8.55-5.01c1.64-0.66,2.3-0.83,4.67-1.16c2.73-0.39,2.77-0.39,3.91,0.07c0.63,0.25,1.77,0.54,2.54,0.63
				c2.92,0.37,4.7,2.22,5.81,6c0.28,0.97,0.67,2.22,0.86,2.77c0.19,0.56,0.69,2.97,1.11,5.37c0.67,3.84,0.76,4.68,0.75,7.05
				c-0.01,1.48-0.11,3.18-0.23,3.78c-0.11,0.6-0.13,1.54-0.04,2.09c0.19,1.08-0.21,6.08-0.62,7.74c-0.14,0.56-0.36,1.82-0.49,2.81
				c-0.34,2.56-1.72,7.9-2.14,8.28c-0.09,0.09-0.67,0.35-1.28,0.58c-0.61,0.23-1.6,0.72-2.19,1.09c-0.98,0.6-1.19,0.66-2.31,0.68
				c-1.71,0.02-1.87-0.13-1.93-1.79c-0.03-0.74-0.14-1.5-0.25-1.67c-0.11-0.18-0.37-1.27-0.57-2.42c-0.3-1.67-0.36-2.83-0.3-5.67
				c0.04-1.96,0.17-4.03,0.28-4.6c0.11-0.57,0.13-1.45,0.04-1.95c-0.11-0.61,0.03-2.29,0.42-5.04c0.55-3.94,0.61-4.17,1.32-5.22
				c1.37-2.05,1.61-2.82,1.5-4.82c-0.1-1.71-0.13-1.83-0.71-2.6c-0.66-0.89-1.63-1.41-3.22-1.7c-0.55-0.1-1.49-0.4-2.09-0.66
				l-1.08-0.47l-2.52,0.51c-1.62,0.33-2.81,0.67-3.32,0.95c-1.17,0.65-3.32,1.71-4.71,2.34c-1.07,0.48-1.31,0.69-1.92,1.67
				c-0.39,0.61-1.15,1.56-1.69,2.09c-0.77,0.76-1.41,1.8-2.86,4.63c-1.03,2.01-2.03,3.84-2.22,4.08c-0.19,0.24-0.33,0.49-0.31,0.57
				c0.05,0.3-1.49,6.12-1.77,6.67c-0.39,0.78-1.3,6.81-1.24,8.19c0.03,0.61-0.05,1.52-0.17,2.02c-0.15,0.64-0.14,2.2,0.06,5.15
				c0.21,3.17,0.22,4.49,0.03,5.24l-0.25,1.01l0.56,0.98c0.8,1.39,1.5,4.35,1.23,5.19c-0.19,0.59-0.15,0.73,0.66,2.44
				c0.59,1.25,1.09,2.01,1.6,2.47c0.88,0.79,2.62,3.51,3.6,5.64l0.71,1.53l1.35,0.52c0.82,0.32,1.58,0.78,1.95,1.18
				c1.44,1.57,4.4,2.82,7.62,3.23c3.15,0.39,5.18,0.03,9-1.61c0.45-0.19,1.21-0.42,1.69-0.51c0.73-0.13,1.01-0.31,1.67-1.05
				c0.53-0.6,1.13-1.02,1.79-1.29c0.73-0.29,1.33-0.75,2.31-1.79c1.19-1.25,1.41-1.41,2.23-1.55c0.9-0.16,0.92-0.17,1.41-1.32
				c0.56-1.33,2.09-1.46,3.18-3.79c2.07-4.81,2.05-4.86,0.73-4.47c-1.28,0.38-1.83,0.24-2.37-0.61c-0.32-0.5-0.35-0.73-0.21-1.91
				c0.12-1.1,0.09-1.5-0.2-2.22c-0.25-0.62-0.33-1.15-0.29-1.8c0.07-0.99,1.16-4.68,1.58-5.32c0.14-0.21,1.27-0.96,2.5-1.65
				l2.25-1.26l-0.01-0.78c-0.02-1.01,0.62-4.41,0.95-5.11c0.63-1.32,0.91-2.7,0.75-3.64c-0.11-0.64-0.04-1.54,0.2-2.72
				c0.2-0.97,0.42-2.35,0.48-3.05s0.35-2.4,0.63-3.76c0.28-1.36,0.49-2.65,0.45-2.86c-0.11-0.62,0.59-5.14,1.45-9.39
				c0.73-3.62,0.89-4.12,1.95-6.23l1.15-2.29l-0.92-0.71c-0.79-0.61-0.94-0.83-1.06-1.52c-0.15-0.94,0.09-1.75,0.88-2.99
				c0.5-0.78,0.69-0.92,1.64-1.2c2-0.59,2.39-0.84,2.85-1.84c0.23-0.51,0.53-1.41,0.65-2c0.31-1.51,0.53-1.94,1.1-2.19
				c0.27-0.12,0.9-0.63,1.41-1.14c0.5-0.51,1.01-0.94,1.14-0.96c0.12-0.02,1-0.83,1.94-1.79c1.97-2.02,2.32-2.16,4.09-1.63
				c0.94,0.27,1.19,0.45,1.45,0.97c0.28,0.56,0.26,0.9-0.1,2.85c-0.23,1.22-0.37,2.44-0.33,2.71c0.05,0.27-0.08,1.04-0.29,1.7
				c-0.42,1.38-0.32,1.77,0.7,2.79c0.61,0.61,0.96,0.73,3.59,1.28c1.6,0.34,2.99,0.6,3.09,0.58c0.36-0.06,1.81,1.25,1.89,1.72
				c0.04,0.26,0.46,1.22,0.93,2.13c0.67,1.3,1.1,2.54,1.98,5.76c1.08,3.91,1.13,4.19,1.11,5.8c-0.02,1.63,0,1.74,0.56,2.85
				c0.51,1.01,0.7,1.77,1.47,6.02c0.48,2.68,0.96,5.7,1.04,6.71l0.16,1.84l0.91,0.07c0.58,0.04,1.05,0.22,1.29,0.48
				c0.36,0.38,0.38,0.53,0.29,1.94c-0.09,1.55-0.24,1.9-1.29,3.01l-0.56,0.59l0.44,1.18c0.37,0.99,0.44,1.5,0.45,3.12
				c0.01,1.07,0.12,3.01,0.25,4.32s0.21,2.52,0.19,2.7c-0.02,0.18,0.07,1.49,0.2,2.91c0.41,4.31,0.5,5.98,0.4,7.42
				c-0.05,0.76,0.02,2.19,0.17,3.18c0.22,1.45,0.21,2.16-0.02,3.61c-0.16,0.99-0.26,2.34-0.22,2.99c0.07,1.15,0.04,1.24-0.9,2.52
				c-1.21,1.64-2.6,2.74-3.17,2.51c-0.62-0.25-1.51-2.52-1.45-3.7c0.03-0.51-0.06-1.5-0.2-2.19c-0.62-3.15-1.17-6.52-1.37-8.37
				c-0.44-4.29-0.63-5.43-0.96-5.87c-0.23-0.31-0.34-0.81-0.4-1.78c-0.04-0.74-0.17-1.91-0.28-2.6c-0.11-0.69-0.16-1.53-0.1-1.87
				c0.08-0.47-0.08-1.23-0.64-3.08c-1.06-3.53-0.91-3.29-1.84-3c-0.43,0.13-1.09,0.47-1.47,0.74c-1.13,0.83-2.95,1.62-4.82,2.07
				c-1.4,0.34-2.06,0.62-3.12,1.3c-0.74,0.48-2.29,1.3-3.46,1.84c-2.04,0.94-2.8,1.42-5.44,3.41c-1.42,1.07-3.24,1.99-4.34,2.18
				c-0.43,0.07-0.85,0.26-0.93,0.4c-0.08,0.15-0.32,1.44-0.53,2.87c-0.21,1.43-0.76,3.89-1.22,5.47c-0.71,2.45-0.83,3.11-0.78,4.51
				c0.06,1.66-0.26,4.19-0.73,5.69c-0.14,0.45-0.25,1.17-0.25,1.59c0.02,2.54-0.1,3.99-0.4,5.17c-0.19,0.74-0.36,1.73-0.39,2.2
				c-0.02,0.48-0.3,1.37-0.61,1.99l-0.57,1.12l-1.66,0.57c-1.31,0.45-1.76,0.54-2.12,0.42l0,0c-1.42-0.47-2-3.87-1.36-7.92
				c0.21-1.31,0.38-2.88,0.39-3.48c0.01-0.6,0.15-1.81,0.33-2.68c0.17-0.87,0.29-2.25,0.26-3.06
				C304.06,343.29,301.76,345.5,301.15,346.53L301.15,346.53z"/>
		</g>
	</g>
</g>
</svg>
