<?xml version="1.0" encoding="UTF-8" standalone="no"?>
<svg
   xmlns:dc="http://purl.org/dc/elements/1.1/"
   xmlns:cc="http://creativecommons.org/ns#"
   xmlns:rdf="http://www.w3.org/1999/02/22-rdf-syntax-ns#"
   xmlns:svg="http://www.w3.org/2000/svg"
   xmlns="http://www.w3.org/2000/svg"
   id="svg8"
   version="1.1"
   viewBox="0 0 264.58333 238.125"
   height="900"
   width="1000">
  <defs
     id="defs2" />
  <metadata
     id="metadata5">
    <rdf:RDF>
      <cc:Work
         rdf:about="">
        <dc:format>image/svg+xml</dc:format>
        <dc:type
           rdf:resource="http://purl.org/dc/dcmitype/StillImage" />
        <dc:title></dc:title>
      </cc:Work>
    </rdf:RDF>
  </metadata>
  <g
     id="layer1">
    <rect
       y="4.2360764"
       x="4.2360482"
       height="229.65285"
       width="256.11124"
       id="rect908"
       style="fill:#f3f3b7;stroke:#000000;stroke-width:1;stroke-linecap:round;stroke-linejoin:round;fill-opacity:1" />
    <path
       id="path918"
       d="m 201.03106,200.02438 c -0.1455,-0.11048 -0.22698,-0.23844 -0.18108,-0.28434 0.12657,-0.12657 0.12589,-2.4044 -10e-4,-3.0252 -0.0633,-0.3097 -0.004,-1.46473 0.13714,-2.66913 0.13675,-1.16775 0.3161,-2.98111 0.39855,-4.0297 0.2154,-2.73964 0.36393,-3.79635 0.6581,-4.68197 0.2386,-0.7184 0.24047,-0.85513 0.0231,-1.69415 -0.2968,-1.14541 -0.29657,-1.68378 0.001,-3.1812 0.13082,-0.6575 0.30424,-2.05339 0.38538,-3.10197 0.29499,-3.81221 0.42148,-4.82136 0.71683,-5.71957 0.23149,-0.70395 0.28383,-1.17909 0.22683,-2.05904 -0.0408,-0.62915 -5.8e-4,-1.53694 0.0888,-2.0173 0.1247,-0.66862 0.1174,-0.98158 -0.0311,-1.33483 -0.203,-0.48279 -0.13474,-1.14888 0.43302,-4.22509 0.12664,-0.68616 0.22899,-1.54409 0.22744,-1.90652 -0.003,-0.82203 0.56206,-4.23705 0.85427,-5.15834 0.26366,-0.83124 0.27479,-1.38227 0.0384,-1.9011 -0.22456,-0.49285 0.0835,-4.788 0.43029,-6.00005 0.16226,-0.56704 0.19714,-1.04586 0.11669,-1.60147 -0.14578,-1.0067 -0.12342,-1.31513 0.32062,-4.42132 0.379,-2.65127 0.50221,-2.99387 1.33531,-3.71296 0.20753,-0.17912 0.49969,-0.53282 0.64924,-0.78598 0.16475,-0.27892 0.57793,-0.60058 1.04847,-0.81627 0.42711,-0.19578 1.18838,-0.73842 1.6917,-1.20585 0.67835,-0.62999 1.21111,-0.9624 2.05904,-1.28474 0.62915,-0.23917 1.3076,-0.56111 1.50766,-0.71542 0.85044,-0.65598 1.63462,-0.15786 2.19952,1.39717 0.28243,0.77747 0.50972,5.93839 0.42794,9.7172 -0.045,2.08041 0.0653,3.23118 0.51623,5.38245 0.11428,0.54526 0.25349,1.47183 0.30935,2.05904 0.25522,2.68289 2.34399,9.58877 3.57524,11.82043 0.72851,1.32044 1.57815,2.25992 2.70759,2.99389 0.65912,0.42834 0.99186,0.53374 1.93728,0.61365 1.13065,0.0956 1.15134,0.0907 2.17838,-0.5159 0.57029,-0.33682 1.20713,-0.66512 1.41521,-0.72955 0.20809,-0.0644 1.40168,-1.13702 2.65242,-2.38353 1.25075,-1.24652 2.33038,-2.26639 2.39918,-2.26639 0.0688,0 0.49516,-0.4976 0.94744,-1.10578 0.45228,-0.60818 1.26144,-1.55545 1.79813,-2.10505 1.13292,-1.16017 1.97868,-2.15572 2.7298,-3.21329 0.29361,-0.41339 1.37425,-1.91024 2.40143,-3.32633 1.02717,-1.41609 1.91269,-2.70137 1.96783,-2.85617 0.0552,-0.1548 0.20911,-0.40788 0.34217,-0.5624 0.33709,-0.39143 0.97964,-1.50468 1.61201,-2.79281 0.74303,-1.51352 1.95241,-2.58878 4.04804,-3.59913 2.75164,-1.32661 3.10554,-1.48703 3.28063,-1.48703 0.30915,0 0.97407,0.83169 1.21827,1.52383 0.28694,0.81328 0.3464,3.76864 0.0921,4.57603 -0.0923,0.29305 -0.16962,1.11667 -0.17177,1.83026 -0.002,0.75461 -0.13224,1.83986 -0.31064,2.59388 -0.16869,0.71304 -0.36773,1.98535 -0.44232,2.82735 -0.0949,1.07167 -0.28279,1.94101 -0.62625,2.89792 -0.29089,0.81041 -0.53831,1.86379 -0.60769,2.58716 -0.16265,1.6956 -0.40707,2.69683 -1.00379,4.11172 -0.30779,0.7298 -0.51339,1.4735 -0.51339,1.85709 0,0.3519 -0.20426,1.1776 -0.45389,1.83489 -0.24963,0.65729 -0.55436,1.67552 -0.67715,2.26273 -0.1228,0.58721 -0.34151,1.34219 -0.48604,1.67774 -0.14451,0.33554 -0.31664,0.95325 -0.38246,1.37269 -0.51112,3.25656 -0.82686,4.5628 -1.23078,5.09192 -0.15272,0.20005 -0.27768,0.55176 -0.27768,0.78156 0,0.2298 -0.10783,0.71814 -0.23961,1.08521 -0.13179,0.36707 -0.30506,1.06314 -0.38503,1.54683 -0.08,0.48369 -0.28076,1.1014 -0.44617,1.37269 -0.2368,0.3884 -0.30091,0.76887 -0.30155,1.7897 -0.002,1.296 -0.64276,4.21512 -1.13782,5.17392 -0.11165,0.21621 -0.2847,0.9422 -0.38456,1.61329 -0.20525,1.37942 -0.80589,4.06525 -1.0455,4.67509 -0.10752,0.27365 -0.34701,0.46423 -0.74034,0.58918 -0.60471,0.19208 -2.04973,1.47206 -2.79039,2.47167 -0.60362,0.81467 -1.64923,1.64415 -2.07255,1.64415 -0.2172,0 -0.46175,-0.15016 -0.60794,-0.37328 -0.22727,-0.34688 -0.21651,-0.53306 0.15228,-2.63101 0.21829,-1.24174 0.53387,-2.77239 0.70129,-3.40144 0.16744,-0.62904 0.369,-1.86447 0.44793,-2.74539 0.0789,-0.88091 0.30991,-2.49391 0.51331,-3.58444 0.2034,-1.09053 0.41498,-2.51401 0.47016,-3.16328 0.0552,-0.64928 0.20109,-1.46608 0.32423,-1.81512 0.12315,-0.34905 0.29004,-1.36211 0.37087,-2.25125 0.16892,-1.85824 0.51675,-3.92026 0.84227,-4.99326 0.12373,-0.40779 0.22569,-1.09436 0.2266,-1.52571 0.002,-0.43134 0.2001,-1.56382 0.44262,-2.51661 0.24254,-0.95278 0.47909,-2.24709 0.52569,-2.87624 0.0466,-0.62916 0.1958,-1.52141 0.33161,-1.98278 0.13579,-0.46138 0.30079,-1.45658 0.36661,-2.21157 0.0659,-0.75498 0.22581,-1.7845 0.35549,-2.28782 0.12967,-0.50333 0.27685,-1.30167 0.32709,-1.77411 0.10874,-1.02276 -0.0856,-1.2856 -0.82959,-1.12219 -0.37732,0.0829 -0.75331,0.46142 -1.79341,1.80562 -0.7238,0.93542 -1.69989,2.07826 -2.16909,2.53963 -0.4692,0.46138 -1.03255,1.14773 -1.25188,1.52522 -0.468,0.80543 -5.97956,6.43137 -6.98,7.12485 -0.3775,0.26166 -0.90116,0.51944 -1.16369,0.57284 -0.34236,0.0696 -0.61647,0.29969 -0.96928,0.81348 -0.63877,0.93022 -2.25418,1.8714 -4.3579,2.53901 -1.72919,0.54876 -1.36274,0.55843 -4.15912,-0.10964 -0.41171,-0.0984 -0.75024,-0.29565 -0.90029,-0.52466 -0.13227,-0.20186 -0.49812,-0.49846 -0.81299,-0.65909 -0.31488,-0.16064 -0.83631,-0.61088 -1.15875,-1.00054 -0.32243,-0.38965 -0.92941,-1.07975 -1.34885,-1.53354 -0.53543,-0.57929 -1.1488,-1.58488 -2.05904,-3.37567 -1.14744,-2.25749 -1.34313,-2.55601 -1.70277,-2.59761 -0.52348,-0.0605 -0.43959,-0.37979 -1.11444,4.24135 -0.11638,0.79692 -0.31952,2.16962 -0.45143,3.05043 -0.1319,0.88081 -0.27995,2.0476 -0.32898,2.59287 -0.0491,0.54526 -0.18854,1.25599 -0.31,1.57939 -0.12146,0.3234 -0.18063,0.71468 -0.13149,0.86951 0.0491,0.15482 0.0138,0.56222 -0.0786,0.90533 -0.0924,0.34311 -0.23466,1.22158 -0.31614,1.95215 -0.0815,0.73057 -0.31264,1.84307 -0.51365,2.47223 -0.27854,0.87179 -0.38282,1.60706 -0.43835,3.09089 -0.0529,1.41311 -0.13846,2.0471 -0.31211,2.31213 -0.17307,0.26413 -0.21489,0.57077 -0.15121,1.10852 0.0668,0.56357 0.0312,0.79055 -0.14694,0.9384 -0.15845,0.13151 -0.20972,0.35341 -0.1574,0.68128 0.0487,0.30531 -0.0393,0.75748 -0.23639,1.21515 -0.23194,0.53848 -0.28998,0.90386 -0.22217,1.39861 0.0505,0.36834 0.042,1.26764 -0.0189,1.99843 -0.10471,1.25701 -0.14168,1.36263 -0.68499,1.95687 -0.31586,0.34548 -0.68761,0.85004 -0.82608,1.12126 -0.31672,0.62027 -0.95448,0.95584 -1.81665,0.95584 -0.36852,0 -1.06902,0.13727 -1.55666,0.30504 -1.03372,0.35565 -1.13248,0.36194 -1.48472,0.0945 z"
       style="fill:#000000;stroke-width:0.152521" />
    <path
       id="path914"
       d="m 87.65003,204.48384 c -1.836417,-0.50478 -3.877413,-1.57283 -4.69914,-2.45904 -0.529214,-0.57074 -0.625669,-1.86381 -0.204004,-2.73485 0.497984,-1.0287 3.678806,-3.27571 6.199578,-4.37955 0.503322,-0.2204 1.51187,-0.72894 2.241218,-1.13007 0.72935,-0.40114 1.962517,-1.00538 2.740373,-1.34276 0.777857,-0.33737 1.828351,-0.84101 2.334432,-1.11919 1.346316,-0.74004 1.95499,-0.90446 2.582127,-0.69748 0.350743,0.11575 0.580665,0.3221 0.711886,0.6389 0.274067,0.66165 -0.158309,1.44461 -0.998061,1.80731 -0.337259,0.14567 -0.743944,0.41101 -0.903749,0.58966 -0.159803,0.17864 -0.379038,0.32481 -0.48719,0.32481 -0.321039,0 -1.035946,0.69515 -0.915435,0.89014 0.172298,0.27879 1.033031,0.20689 1.590256,-0.13284 0.278941,-0.17006 1.232688,-1.01994 2.119438,-1.88862 l 1.612271,-1.57942 -0.0973,-0.60827 c -0.15446,-0.96598 0.11676,-1.48866 1.04935,-2.02224 0.44911,-0.25696 0.95883,-0.69737 1.1327,-0.97871 0.27478,-0.44459 0.30317,-0.6583 0.21704,-1.6333 -0.0945,-1.06994 -0.16183,-1.22654 -1.45636,-3.3884 -1.20021,-2.00436 -1.53758,-2.43897 -2.915753,-3.75618 -0.857173,-0.81927 -2.243851,-2.256 -3.081505,-3.19275 -0.837654,-0.93675 -2.193791,-2.2884 -3.013638,-3.00366 -0.819846,-0.71526 -1.906874,-1.84727 -2.415616,-2.51559 -0.508743,-0.66831 -1.063065,-1.29834 -1.231826,-1.40007 -0.168762,-0.10172 -0.473409,-0.51031 -0.676992,-0.90798 -0.203583,-0.39766 -0.672329,-1.00156 -1.041659,-1.342 -1.320078,-1.21681 -2.514394,-3.86004 -2.997434,-6.63386 -0.419292,-2.40775 0.157418,-6.0678 1.197312,-7.59866 0.293236,-0.43168 0.716461,-1.16237 0.940499,-1.62375 0.676402,-1.39296 1.714802,-2.96412 3.009997,-4.55431 0.924513,-1.13508 3.295228,-3.17584 3.824311,-3.29204 0.265114,-0.0582 0.539936,-0.26259 0.663429,-0.49334 0.115954,-0.21667 0.692026,-0.72099 1.28016,-1.12073 0.588133,-0.39973 1.30586,-0.97415 1.594949,-1.27648 0.289088,-0.30234 0.647006,-0.5497 0.795372,-0.5497 0.148367,0 0.34164,-0.13431 0.429499,-0.29848 0.08786,-0.16416 0.392395,-0.34213 0.676751,-0.39547 0.284355,-0.0533 0.708174,-0.29652 0.941814,-0.54039 0.23364,-0.24387 0.50207,-0.4434 0.59651,-0.4434 0.0944,0 0.3733,-0.2123 0.61969,-0.47178 0.56756,-0.59775 1.41244,-1.02757 3.59232,-1.82758 0.95499,-0.35047 2.26674,-0.90306 2.915,-1.22797 0.69397,-0.34783 1.39744,-0.59075 1.71069,-0.59075 0.54273,0 1.15137,-0.2155 2.37266,-0.84007 0.8943,-0.45735 1.1506,-0.48772 2.02469,-0.23983 0.55378,0.15705 0.91006,0.40545 1.48709,1.03681 l 0.75883,0.83028 v 1.82604 c 0,1.54663 -0.0636,2.03849 -0.41563,3.21452 -0.4064,1.3576 -0.43319,1.3997 -1.20486,1.89333 -0.43407,0.27768 -0.98486,0.74133 -1.22397,1.03034 -0.23912,0.28902 -1.1211,1.02172 -1.95998,1.62823 -0.83888,0.60651 -1.8684,1.39005 -2.28783,1.7412 -0.90171,0.75491 -1.44797,1.09276 -2.97862,1.84221 -0.62671,0.30686 -1.79305,0.99031 -2.59188,1.51877 -1.38258,0.91466 -1.48724,0.95693 -2.17689,0.87919 -1.30218,-0.14677 -1.821358,-1.21485 -1.19107,-2.45032 0.29228,-0.5729 1.36614,-1.57404 2.29299,-2.13769 0.82663,-0.5027 1.6027,-2.16415 1.01088,-2.16415 -0.33772,0 -1.31341,0.59692 -1.9915,1.21838 -0.33554,0.30753 -1.10009,0.91505 -1.69898,1.35004 -1.056308,0.76723 -2.150231,1.90896 -2.726921,2.8461 -0.154864,0.25166 -0.432972,0.62915 -0.618016,0.83887 -0.897588,1.01726 -2.049754,3.92749 -2.04514,5.16577 0.0032,0.87283 0.608788,3.23896 0.927048,3.62244 0.09604,0.11572 0.271492,0.67372 0.389895,1.24001 0.194929,0.93228 0.30006,1.1161 1.112227,1.94473 0.493322,0.50332 1.341275,1.60148 1.884342,2.44035 0.543065,0.83887 1.261105,1.79975 1.595655,2.1353 0.33454,0.33555 0.73335,0.81599 0.88625,1.06765 0.43676,0.71891 2.33585,2.95611 2.72677,3.21225 0.19426,0.12729 0.95727,0.98314 1.69559,1.9019 0.73832,0.91876 1.45455,1.70607 1.59163,1.74957 0.13708,0.0435 0.35687,0.30481 0.48841,0.58066 0.34815,0.73007 1.33269,2.07636 1.97107,2.69527 0.8096,0.78493 1.48898,2.97669 1.67929,5.41756 0.0785,1.00664 0.16153,1.89463 0.18456,1.97332 0.023,0.0787 0.38075,0.25026 0.79493,0.3813 l 0.75306,0.23825 0.13407,1.09326 c 0.20389,1.66262 0.17501,1.71058 -1.69602,2.8166 -1.49956,0.88644 -1.89741,1.23131 -4.6152,4.00069 -1.63579,1.66684 -3.38598,3.31041 -3.8893,3.65237 -0.50332,0.34195 -1.32694,0.9407 -1.83026,1.33055 -1.931266,1.49586 -3.554321,2.4887 -6.863478,4.19847 -0.922756,0.47677 -1.85411,0.99155 -2.069675,1.14395 -0.33494,0.23681 -3.854902,1.2368 -4.212922,1.19687 -0.06782,-0.008 -0.363534,-0.0798 -0.657139,-0.1605 z"
       style="fill:#000000;stroke-width:0.152521" />
    <path
       d="m 172.67448,174.08444 c 0.70579,0.0737 1.24952,0.0105 2.37685,-0.27616 0.80394,-0.20446 1.67382,-0.34062 1.93307,-0.30256 0.25925,0.038 1.16808,-0.0479 2.01964,-0.19082 0.91381,-0.15344 1.81804,-0.21953 2.20657,-0.16127 0.4638,0.0695 1.10253,-0.0115 2.16194,-0.27426 0.82702,-0.20514 1.84684,-0.41597 2.26627,-0.46851 0.41944,-0.0525 1.00619,-0.13171 1.30388,-0.17593 l 0.54127,-0.0804 -0.0419,-4.37678 c -0.042,-4.38953 -0.20827,-7.2036 -0.49307,-8.34234 -0.0839,-0.33555 -0.11316,-0.98955 -0.065,-1.45334 0.0827,-0.79641 0.0409,-0.93635 -0.75307,-2.51943 -0.77386,-1.54305 -0.94986,-1.77457 -2.21584,-2.91478 -0.99347,-0.89478 -1.59081,-1.31021 -2.15192,-1.49658 -0.75689,-0.2514 -0.79014,-0.24969 -1.30248,0.0669 -0.28917,0.17872 -0.57142,0.46879 -0.62722,0.64461 -0.0558,0.17582 -0.36356,0.60402 -0.6839,0.95155 -0.38274,0.41521 -0.64572,0.89134 -0.76701,1.38862 -0.26615,1.09125 -2.66605,6.0103 -3.20221,6.56352 -0.32432,0.33466 -0.49397,0.70505 -0.59374,1.29643 -0.17652,1.04614 -0.71842,2.62142 -1.43626,4.17508 -0.3072,0.6649 -0.66605,1.62376 -0.79743,2.13081 -0.1314,0.50706 -0.47315,1.32161 -0.75945,1.8101 -0.2863,0.48851 -0.52055,0.93707 -0.52055,0.99683 0,0.0598 -0.26199,0.55699 -0.58222,1.10496 -0.59946,1.02584 -0.5927,0.97064 -0.25399,2.07531 0.0406,0.13251 0.24404,0.12107 0.78865,-0.0443 0.49497,-0.15032 1.03185,-0.19176 1.64904,-0.1273 z m -18.33026,21.22737 c -0.38535,0.31092 -1.14676,0.98667 -1.69202,1.50166 -1.34123,1.26674 -2.87231,2.25713 -5.38974,3.48637 -2.51438,1.22775 -5.08626,2.17306 -6.65948,2.44772 -1.24167,0.21679 -4.75697,0.46008 -4.88069,0.3378 l 4e-5,3e-5 c -0.0419,-0.0414 -0.72829,-0.15147 -1.52521,-0.24446 -1.0709,-0.12496 -1.68337,-0.28801 -2.34738,-0.62491 -0.49413,-0.25071 -1.13048,-0.45584 -1.4141,-0.45584 -0.28396,0 -0.7712,-0.16409 -1.08436,-0.3652 -0.31277,-0.20085 -0.84322,-0.41285 -1.17877,-0.4711 -0.33555,-0.0582 -1.27186,-0.44554 -2.08068,-0.86065 -2.4545,-1.25971 -4.47469,-3.27428 -6.26047,-6.24307 -0.73448,-1.22104 -1.74649,-3.73771 -1.9284,-4.79554 -0.0866,-0.50332 -0.36194,-1.50392 -0.61196,-2.22355 -0.43762,-1.25961 -0.54308,-2.02545 -0.48144,-3.49601 0.0576,-1.37458 -0.15038,-3.77529 -0.37224,-4.29638 -0.15535,-0.36484 0.62592,-7.71342 0.99959,-9.40221 0.24221,-1.09461 0.42071,-1.54174 0.77792,-1.94859 0.43735,-0.4981 0.45792,-0.5781 0.36342,-1.41333 -0.0926,-0.81838 -0.049,-1.00553 0.57702,-2.47454 0.37245,-0.87406 0.79536,-2.00101 0.9398,-2.50433 0.44234,-1.54138 2.68321,-5.82694 4.34646,-8.31243 1.56182,-2.3339 3.53955,-4.74521 4.58438,-5.58939 0.67663,-0.54669 1.04379,-0.96049 1.09953,-1.23922 0.0928,-0.46394 1.68072,-1.95601 2.69454,-2.53187 0.33661,-0.1912 0.86139,-0.66771 1.16617,-1.0589 0.76511,-0.98205 3.62901,-3.09715 4.38444,-3.23808 0.3513,-0.0655 0.98652,-0.41444 1.57322,-0.86412 1.30058,-0.99684 4.17671,-2.07835 7.37017,-2.77139 1.37408,-0.2982 1.9155,-0.33806 3.81304,-0.28068 2.19123,0.0662 2.21928,0.0716 3.05044,0.57947 0.46137,0.28193 1.31693,0.65927 1.90124,0.83854 2.23339,0.68521 3.38283,2.36998 3.73815,5.47912 0.0911,0.79693 0.22715,1.82645 0.3024,2.28783 0.0752,0.46137 0.14181,2.42101 0.14794,4.35474 0.01,3.09669 -0.0337,3.76669 -0.36463,5.61964 -0.20667,1.15708 -0.51552,2.47733 -0.68635,2.9339 -0.17082,0.45656 -0.31058,1.19018 -0.31058,1.63027 0,0.87239 -0.98721,4.73574 -1.52697,5.97561 -0.18259,0.41943 -0.52436,1.38032 -0.75948,2.1353 -0.60992,1.95845 -2.40841,5.95711 -2.78848,6.19975 -0.0852,0.0544 -0.57232,0.18102 -1.08252,0.28139 -0.5102,0.10037 -1.34789,0.35073 -1.86153,0.55636 -0.84825,0.33958 -1.02255,0.35958 -1.90083,0.21814 -1.34311,-0.2163 -1.44619,-0.3516 -1.2684,-1.665 0.0792,-0.58509 0.0943,-1.19009 0.0335,-1.34444 -0.0608,-0.15435 -0.1153,-1.04363 -0.1212,-1.97618 -0.009,-1.35003 0.0997,-2.26323 0.53133,-4.48126 0.29812,-1.53213 0.67558,-3.13703 0.83879,-3.56644 0.16321,-0.42941 0.29678,-1.11476 0.29682,-1.523 5e-5,-0.49462 0.33563,-1.79215 1.00587,-3.8893 0.96161,-3.00881 1.03772,-3.18055 1.73275,-3.90966 1.35085,-1.41709 1.64307,-1.99092 1.81976,-3.57352 0.15106,-1.35295 0.14181,-1.44896 -0.2057,-2.13472 -0.39954,-0.78846 -1.09021,-1.32151 -2.29356,-1.77015 -0.41943,-0.15637 -1.11407,-0.51478 -1.54363,-0.79646 l -0.78102,-0.51215 -2.04063,0.0578 c -1.31028,0.0371 -2.28627,0.14274 -2.72697,0.29511 -1.00615,0.34786 -2.82668,0.8922 -4.0052,1.19756 -0.90174,0.23364 -1.11874,0.36469 -1.73043,1.04504 -0.38467,0.42784 -1.10669,1.0636 -1.60449,1.41279 -0.70213,0.49251 -1.34483,1.21925 -2.86589,3.24062 -1.07843,1.43314 -2.10591,2.73647 -2.2833,2.89627 -0.17738,0.15981 -0.32251,0.34228 -0.32251,0.40552 0,0.24085 -1.9929,4.59204 -2.28483,4.98857 -0.41291,0.56086 -1.93659,5.15459 -2.07317,6.25041 -0.0601,0.48223 -0.24235,1.18563 -0.405,1.56312 -0.2062,0.47859 -0.40261,1.70204 -0.64885,4.04182 -0.26452,2.51341 -0.43542,3.5448 -0.68101,4.10988 l -0.32787,0.7544 0.30811,0.84708 c 0.436,1.19869 0.58759,3.60768 0.26614,4.2293 -0.22683,0.43862 -0.21604,0.5542 0.18636,1.99787 0.2952,1.0591 0.57805,1.72289 0.91587,2.14943 0.58343,0.73664 1.57823,3.1013 2.06176,4.90086 l 0.34832,1.29632 0.98596,0.59175 c 0.60184,0.36121 1.13437,0.82262 1.36693,1.18436 0.91733,1.42691 3.06023,2.80385 5.53233,3.55486 2.40852,0.73168 4.04671,0.72054 7.26077,-0.0494 0.37749,-0.0904 1.00339,-0.16609 1.3909,-0.16814 0.58526,-0.003 0.83059,-0.10373 1.44895,-0.59434 0.49762,-0.39481 1.0188,-0.64901 1.57208,-0.76677 0.61379,-0.13064 1.14322,-0.41157 2.0488,-1.08714 1.09735,-0.81862 1.29579,-0.91096 1.95774,-0.91096 0.72706,0 0.74365,-0.011 1.27882,-0.84759 0.61791,-0.96596 1.83368,-0.858 2.99615,-2.53877 2.27106,-3.48675 2.25955,-3.52943 1.16991,-3.40297 -1.05628,0.1226 -1.46252,-0.0593 -1.77394,-0.79435 -0.18307,-0.43212 -0.17225,-0.61627 0.0896,-1.52522 0.24432,-0.84804 0.26998,-1.16538 0.14283,-1.7664 -0.10927,-0.51646 -0.10417,-0.94401 0.0173,-1.44895 0.1851,-0.76962 1.5398,-3.50616 1.9569,-3.95301 0.13929,-0.14922 1.12113,-0.58016 2.18186,-0.95765 l 1.92862,-0.68635 0.0956,-0.61009 c 0.12451,-0.79469 1.07744,-3.37392 1.43277,-3.87798 0.6682,-0.94785 1.07852,-1.99433 1.07852,-2.75059 0,-0.51298 0.17355,-1.20853 0.52455,-2.10224 0.28851,-0.73459 0.64238,-1.78175 0.78638,-2.32701 0.144,-0.54527 0.5943,-1.83329 1.00066,-2.86228 0.40637,-1.02899 0.73884,-2.00996 0.73884,-2.17993 0,-0.49691 1.15844,-3.94699 2.40397,-7.15952 1.06015,-2.73438 1.25093,-3.10654 2.36625,-4.61587 l 1.21313,-1.6417 -0.62758,-0.68085 c -0.53514,-0.58056 -0.62665,-0.77684 -0.62119,-1.33247 0.007,-0.7563 0.30367,-1.36171 1.08776,-2.22291 0.49495,-0.54362 0.66401,-0.62736 1.44895,-0.71772 1.64313,-0.18916 1.98697,-0.33519 2.48145,-1.05391 0.25135,-0.3653 0.60102,-1.03234 0.77705,-1.48229 0.4451,-1.13768 0.6751,-1.45087 1.15366,-1.57098 0.2279,-0.0572 0.79209,-0.37449 1.25376,-0.70508 0.46167,-0.3306 0.92115,-0.60108 1.02106,-0.60108 0.0999,0 0.8926,-0.51476 1.76155,-1.14392 1.81567,-1.31461 2.10314,-1.37583 3.42226,-0.72888 0.6949,0.34081 0.87486,0.51129 1.00629,0.95326 0.1411,0.47446 0.0866,0.737 -0.45984,2.21597 -0.34096,0.92275 -0.62068,1.85681 -0.62162,2.07568 -0.001,0.21887 -0.20495,0.80089 -0.45336,1.29338 -0.51669,1.02433 -0.49251,1.34456 0.17217,2.2803 0.39494,0.55601 0.65212,0.70116 2.63475,1.48709 1.2084,0.47901 2.26298,0.87094 2.34352,0.87094 0.29319,0 1.24957,1.22465 1.24957,1.60009 0,0.20847 0.20017,1.01473 0.44482,1.79169 0.3492,1.10901 0.51605,2.13705 0.77622,4.78285 0.31548,3.20815 0.3195,3.43377 0.0836,4.69247 -0.23821,1.27128 -0.23604,1.36028 0.0564,2.30701 0.26573,0.86031 0.30844,1.4814 0.33814,4.91638 0.0187,2.16242 -0.0202,4.59084 -0.0865,5.3965 l -0.12044,1.46483 0.70033,0.17635 c 0.44726,0.11262 0.78903,0.31172 0.94581,0.55099 0.2267,0.34599 0.22421,0.46546 -0.0325,1.56178 -0.28216,1.20533 -0.44339,1.45442 -1.41512,2.18638 l -0.51665,0.38917 0.18347,0.98353 c 0.15314,0.82091 0.14227,1.2357 -0.0658,2.50874 -0.13707,0.83887 -0.31081,2.37605 -0.38609,3.41596 -0.0753,1.03991 -0.17271,2.00367 -0.21652,2.14169 -0.0438,0.13802 -0.14918,1.17465 -0.23418,2.3036 -0.25849,3.43337 -0.41241,4.74996 -0.68574,5.8657 -0.14386,0.58721 -0.27591,1.71968 -0.29345,2.51661 -0.0257,1.16578 -0.12405,1.71722 -0.5034,2.82165 -0.25933,0.75498 -0.5179,1.7967 -0.5746,2.31493 -0.0993,0.90779 -0.13759,0.97538 -1.04716,1.84879 -1.16964,1.12314 -2.40235,1.79475 -2.81788,1.53524 -0.45037,-0.28126 -0.84142,-2.17957 -0.63695,-3.09196 0.0895,-0.39929 0.15126,-1.18353 0.13728,-1.74275 -0.0638,-2.553 -0.0403,-5.26855 0.0584,-6.73633 0.22978,-3.41773 0.23812,-4.33764 0.0428,-4.72673 -0.13846,-0.27586 -0.15774,-0.6809 -0.069,-1.4504 0.0677,-0.58721 0.12659,-1.52069 0.13089,-2.07441 0.004,-0.55372 0.0823,-1.22026 0.17323,-1.4812 0.1245,-0.35716 0.10435,-0.9755 -0.0815,-2.50124 -0.35422,-2.90741 -0.27126,-2.69919 -1.0364,-2.60122 -0.35691,0.0457 -0.91898,0.21865 -1.24904,0.38435 -0.99831,0.50116 -2.5226,0.86805 -4.0518,0.97526 -1.14521,0.0803 -1.69324,0.20574 -2.61424,0.59849 -0.6409,0.27331 -1.97152,0.71209 -2.95693,0.97507 -1.72051,0.45915 -2.38506,0.73206 -4.71644,1.93687 -1.25199,0.64699 -2.80705,1.1189 -3.6871,1.1189 -0.34651,0 -0.69786,0.0858 -0.78079,0.19065 -0.0829,0.10486 -0.44208,1.08291 -0.79814,2.17344 -0.35606,1.09053 -1.1167,2.94367 -1.69032,4.11808 -0.88844,1.81896 -1.0685,2.32693 -1.21541,3.42878 -0.17497,1.31236 -0.76821,3.24951 -1.33592,4.36231 -0.17166,0.33649 -0.35709,0.88314 -0.41207,1.21478 -0.33032,1.99245 -0.61355,3.11239 -1.01133,3.99897 -0.24725,0.55108 -0.51725,1.30409 -0.60001,1.67337 -0.0828,0.36928 -0.41763,1.03307 -0.74416,1.47508 l -0.59369,0.80365 -1.3764,0.22581 c -1.08249,0.17759 -1.44901,0.18694 -1.71647,0.0438 h 3.6e-4 c -1.04628,-0.55995 -1.04488,-3.30212 0.003,-6.3833 0.33978,-0.99883 0.68784,-2.20245 0.77348,-2.67471 0.0856,-0.47226 0.36327,-1.39772 0.61698,-2.05657 0.2537,-0.65885 0.53171,-1.72018 0.61781,-2.35851 0,-0.37223 -2.09538,1.04895 -2.70959,1.77112 z"
       style="fill:#000000;stroke-width:0.152521"
       id="path906" />
    <rect
       style="fill:#000000;stroke:#000000;stroke-width:1;stroke-linecap:round;stroke-linejoin:round;fill-opacity:1"
       id="rect922"
       width="49.341236"
       height="64.259209"
       x="4.2360482"
       y="4.2360764" />
    <rect
       y="4.2360764"
       x="52.919384"
       height="63.085407"
       width="54.916817"
       id="rect924"
       style="fill:#2d2c41;stroke:#000000;stroke-width:1;stroke-linecap:round;stroke-linejoin:round;fill-opacity:1" />
    <rect
       style="fill:#958184;stroke:#000000;stroke-width:1;stroke-linecap:round;stroke-linejoin:round;fill-opacity:1"
       id="rect926"
       width="45.52636"
       height="47.825932"
       x="105.83604"
       y="4.2360764" />
    <rect
       y="4.2360764"
       x="144.99442"
       height="38.728935"
       width="33.494858"
       id="rect930"
       style="fill:#bc9088;stroke:#000000;stroke-width:1;stroke-linecap:round;stroke-linejoin:round;fill-opacity:1" />
    <rect
       transform="scale(-1,1)"
       style="fill:#f4c1c1;stroke:#000000;stroke-width:1;stroke-linecap:round;stroke-linejoin:round;fill-opacity:1"
       id="rect934"
       width="83.561775"
       height="29.518944"
       x="-260.34729"
       y="4.2360764" />
    <rect
       style="fill:#515e72;stroke:#000000;stroke-width:1;stroke-linecap:round;stroke-linejoin:round;fill-opacity:1"
       id="rect936"
       width="48.754333"
       height="43.717609"
       x="9.0638351"
       y="58.524605" />
    <rect
       style="fill:#ffffff;stroke:#000000;stroke-width:1;stroke-linecap:round;stroke-linejoin:round;fill-opacity:1"
       id="rect944"
       width="15.053081"
       height="13.497972"
       x="131.83047"
       y="106.1496" />
    <rect
       y="41.591267"
       x="67.272171"
       height="40.221851"
       width="44.855827"
       id="rect946"
       style="fill:#434268;stroke:#000000;stroke-width:1;stroke-linecap:round;stroke-linejoin:round;fill-opacity:1" />
    <rect
       style="fill:#f1b1c5;stroke:#000000;stroke-width:1;stroke-linecap:round;stroke-linejoin:round;fill-opacity:1"
       id="rect948"
       width="35.62846"
       height="31.947744"
       x="109.60548"
       y="58.524609" />
    <rect
       y="68.049606"
       x="131.83047"
       height="28.354982"
       width="26.362629"
       id="rect950"
       style="fill:#f4dbd4;stroke:#000000;stroke-width:1;stroke-linecap:round;stroke-linejoin:round;fill-opacity:1" />
    <rect
       style="fill:#fefefe;stroke:#000000;stroke-width:1;stroke-linecap:round;stroke-linejoin:round;fill-opacity:1"
       id="rect952"
       width="18.833956"
       height="16.888252"
       x="154.05548"
       y="83.395439" />
    <rect
       y="87.628769"
       x="182.63048"
       height="12.099668"
       width="13.493683"
       id="rect954"
       style="fill:#ffffff;stroke:#000000;stroke-width:1;stroke-linecap:round;stroke-linejoin:round;fill-opacity:1" />
    <rect
       style="fill:#efdad5;stroke:#000000;stroke-width:1;stroke-linecap:round;stroke-linejoin:round;fill-opacity:1"
       id="rect956"
       width="35.465813"
       height="31.801893"
       x="166.74649"
       y="27.99283" />
    <rect
       y="54.451168"
       x="177.32983"
       height="25.454075"
       width="28.38665"
       id="rect958"
       style="fill:#fafafa;stroke:#000000;stroke-width:1;stroke-linecap:round;stroke-linejoin:round;fill-opacity:1" />
    <rect
       y="75.617828"
       x="211.72566"
       height="13.834886"
       width="15.428805"
       id="rect962"
       style="fill:#fdfdfd;stroke:#000000;stroke-width:1;stroke-linecap:round;stroke-linejoin:round;fill-opacity:1" />
    <rect
       style="fill:#ffffff;stroke:#000000;stroke-width:1;stroke-linecap:round;stroke-linejoin:round;fill-opacity:1"
       id="rect964"
       width="18.766735"
       height="16.827984"
       x="239.7715"
       y="74.030327" />
    <rect
       y="97.313644"
       x="225.48404"
       height="10.017278"
       width="11.171373"
       id="rect966"
       style="fill:#fdfdfd;stroke:#000000;stroke-width:1;stroke-linecap:round;stroke-linejoin:round;fill-opacity:1" />
    <rect
       transform="scale(-1,1)"
       style="fill:#eac7de;stroke:#000000;stroke-width:1;stroke-linecap:round;stroke-linejoin:round;fill-opacity:1"
       id="rect968"
       width="34.696198"
       height="31.111794"
       x="-260.34729"
       y="22.227745" />
    <rect
       y="96.851776"
       x="4.2360497"
       height="59.451004"
       width="43.084564"
       id="rect978"
       style="fill:#49628a;stroke:#000000;stroke-width:1;stroke-linecap:round;stroke-linejoin:round;fill-opacity:1" />
    <rect
       style="fill:#fafafa;stroke:#000000;stroke-width:1;stroke-linecap:round;stroke-linejoin:round;fill-opacity:1"
       id="rect960"
       width="29.671156"
       height="26.605871"
       x="215.42986"
       y="43.338665" />
    <rect
       y="80.749603"
       x="56.688839"
       height="33.18512"
       width="37.0084"
       id="rect938"
       style="fill:#596cc4;stroke:#000000;stroke-width:1;stroke-linecap:round;stroke-linejoin:round;fill-opacity:1" />
    <rect
       style="fill:#bab6e7;stroke:#000000;stroke-width:1;stroke-linecap:round;stroke-linejoin:round;fill-opacity:1"
       id="rect940"
       width="29.003695"
       height="26.007372"
       x="84.205498"
       y="95.566261" />
    <rect
       y="106.1496"
       x="105.37215"
       height="16.888252"
       width="18.833956"
       id="rect942"
       style="fill:#f6f6f6;stroke:#000000;stroke-width:1;stroke-linecap:round;stroke-linejoin:round;fill-opacity:1" />
    <rect
       transform="scale(-1,1)"
       style="fill:#454890;stroke:#000000;stroke-width:1;stroke-linecap:round;stroke-linejoin:round;fill-opacity:1"
       id="rect976"
       width="32.501228"
       height="59.451"
       x="-36.737278"
       y="128.07259" />
    <rect
       y="125.88866"
       x="44.508953"
       height="32.093605"
       width="35.791126"
       id="rect928"
       style="fill:#9fa5fc;stroke:#000000;stroke-width:1;stroke-linecap:round;stroke-linejoin:round;fill-opacity:1" />
    <rect
       style="fill:#464bed;stroke:#000000;stroke-width:1;stroke-linecap:round;stroke-linejoin:round;fill-opacity:1"
       id="rect970"
       width="28.740204"
       height="25.771095"
       x="41.863117"
       y="156.05121" />
    <rect
       style="fill:#91a1ed;stroke:#000000;stroke-width:1;stroke-linecap:round;stroke-linejoin:round;fill-opacity:1"
       id="rect974"
       width="36.105694"
       height="32.375664"
       x="7.4672842"
       y="186.74284" />
    <rect
       y="174.57202"
       x="32.338116"
       height="21.415253"
       width="23.882526"
       id="rect972"
       style="fill:#ffffff;stroke:#000000;stroke-width:1;stroke-linecap:round;stroke-linejoin:round;fill-opacity:1" />
  </g>
</svg>
